<svg width="1011" height="1175" viewBox="0 0 1011 1175" fill="none" xmlns="http://www.w3.org/2000/svg">
<path d="M315.404 3.42338C322.434 5.17166 329.154 6.81414 336.404 7.11088C347.176 7.58668 353.968 11.5234 362.069 18.2139C367.053 22.2982 372.186 25.3023 377.842 28.4078C393.638 37.2542 408.905 48.883 422.084 61.2554C424.203 63.2388 426.371 65.1183 428.592 66.9859C442.044 78.6835 442.044 78.6835 442.705 86.1929C442.855 92.4825 442.947 96.6515 438.467 101.486C434.713 104.995 431.068 107.262 426.467 109.486C426.455 110.571 426.455 110.571 426.442 111.679C426.364 118.52 426.277 125.36 426.179 132.201C426.129 135.717 426.083 139.234 426.045 142.75C426.001 146.799 425.941 150.847 425.881 154.896C425.869 156.15 425.858 157.405 425.846 158.697C425.608 172.839 425.608 172.839 421.846 177.49C421.246 178.004 420.647 178.518 420.029 179.048C414.649 184.082 412.742 189.155 412.467 196.486C412.769 200.905 413.332 205.282 413.904 209.673C415.058 218.606 416.027 227.464 415.467 236.486C413.111 238.842 407.171 237.883 403.982 238.009C400.344 238.503 398.469 239.466 395.467 241.486C394.807 241.486 394.147 241.486 393.467 241.486C393.513 242.089 393.559 242.692 393.607 243.314C393.902 249.841 393.902 249.841 391.779 252.986C389.285 254.603 387.405 255.159 384.467 255.486C384.384 256.352 384.302 257.218 384.217 258.111C383.343 262.041 381.929 264.32 379.467 267.486C378.769 267.851 378.072 268.215 377.353 268.591C374.682 271.273 375.069 273.379 375.066 277.05C375.074 277.895 375.083 278.74 375.092 279.611C374.946 286.354 374.685 291.493 370.213 296.888C363.325 303.19 356.015 303.786 347.01 303.705C338.373 303.171 330.529 300.66 322.599 297.345C316.611 294.932 311.428 295.207 305.467 297.486C297.68 301.841 293.32 307.966 290.892 316.505C290.682 317.486 290.682 317.486 290.467 318.486C290.295 319.197 290.124 319.909 289.947 320.642C289.578 323.591 289.664 325.604 290.467 328.486C292.617 331.117 294.863 333.325 297.354 335.619C311.933 349.092 322.456 367.668 330.967 385.423C331.269 386.048 331.571 386.672 331.882 387.316C337.453 399.44 340.195 412.823 343.342 425.736C343.56 426.631 343.779 427.525 344.004 428.447C350.498 455.181 355.211 482.166 358.467 509.486C358.571 510.331 358.674 511.177 358.781 512.048C359.696 520.544 359.724 529.075 359.762 537.612C359.773 539.369 359.793 541.126 359.823 542.883C359.992 552.817 359.588 562.394 358.021 572.218C355.077 590.987 354.982 609.474 355.16 628.431C355.197 632.962 355.207 637.493 355.22 642.024C355.254 652.523 355.318 663.021 355.386 673.52C355.471 686.877 355.544 700.234 355.586 713.592C355.601 718.065 355.623 722.539 355.662 727.012C355.84 747.77 355.247 768.062 352.74 788.687C352.019 793.699 352.019 793.699 353.669 798.196C354.507 798.95 354.507 798.95 355.361 799.72C355.982 800.29 356.602 800.859 357.241 801.446C357.914 802.037 358.586 802.627 359.279 803.236C359.963 803.854 360.646 804.473 361.35 805.11C366.081 809.357 370.923 813.444 375.92 817.377C378.63 819.621 381.042 822.062 383.529 824.548C386.807 827.512 388.872 829.074 393.342 829.173C395.056 828.998 396.766 828.767 398.467 828.486C399.334 828.385 400.202 828.285 401.096 828.181C406.664 827.422 411.981 826.086 417.376 824.555C430.195 820.947 442.16 819.083 454.478 825.541C460.579 828.441 467.638 827.49 474.154 826.861C474.879 826.804 475.604 826.747 476.35 826.688C481.893 826.06 484.403 824.258 488.467 820.486C492.248 819.226 493.855 819.253 497.592 820.673C500.33 822.4 502.39 824.01 504.467 826.486C504.467 827.146 504.467 827.806 504.467 828.486C523.721 825.729 542.662 822.571 561.467 817.486C562.336 817.253 563.206 817.02 564.102 816.78C575.407 813.703 586.272 809.775 597.131 805.381C598.059 805.006 598.987 804.63 599.943 804.244C601.182 803.735 601.182 803.735 602.446 803.217C604.467 802.486 604.467 802.486 606.467 802.486C607.875 789.75 609.05 777.017 609.967 764.236C610.03 763.366 610.093 762.496 610.158 761.6C611.507 742.937 612.527 724.264 613.371 705.572C613.459 703.652 613.552 701.732 613.646 699.812C614.226 687.89 614.497 675.999 614.455 664.064C614.452 663.049 614.449 662.033 614.446 660.987C614.428 655.903 614.396 650.819 614.342 645.736C614.208 629.322 615.61 615.013 621.467 599.486C621.737 598.763 622.008 598.04 622.287 597.295C624.441 591.568 626.666 585.869 628.904 580.173C629.253 579.282 629.602 578.391 629.961 577.472C634.692 565.382 639.545 553.349 644.529 541.361C677.93 468.381 677.93 468.381 678.467 390.486C675.588 386.49 672.161 385.309 667.467 384.486C662.044 383.79 656.603 383.289 651.158 382.806C643.217 381.996 635.793 380.898 630.029 374.986C629.514 374.161 628.998 373.336 628.467 372.486C628.11 371.919 627.753 371.351 627.385 370.767C626.113 367.607 626.203 364.886 626.217 361.486C626.218 360.827 626.219 360.169 626.22 359.491C626.294 354.14 627.13 349.154 628.42 343.974C628.759 341.329 628.759 341.329 626.58 339.47C625.534 338.488 625.534 338.488 624.467 337.486C623.744 335.013 623.744 335.013 623.404 332.423C622.891 328.59 622.278 327.099 619.467 324.486C618.15 319.42 618.725 315.701 619.986 310.775C620.716 307.297 620.595 304.028 620.467 300.486C619.765 300.259 619.064 300.032 618.342 299.798C614.375 297.987 610.468 295.488 608.467 291.486C607.67 286.204 608.236 282.499 611.032 277.945C614.218 271.808 613.632 266.851 612.799 260.146C612.561 257.742 612.332 255.337 612.11 252.932C611.994 251.701 611.879 250.47 611.76 249.202C611.008 239.667 611.133 230.084 611.151 220.524C611.154 216.921 611.13 213.318 611.105 209.714C611.055 191.284 611.545 172.36 616.467 154.486C633.212 154.368 649.91 154.485 666.645 155.13C670.252 155.266 673.859 155.378 677.467 155.486C678.754 155.539 680.041 155.592 681.367 155.647C689.258 155.851 695.11 155.205 702.217 151.798C733.235 138.278 775.45 134.47 807.467 146.486C808.092 146.719 808.718 146.952 809.362 147.192C826.055 153.562 839.919 163.444 853.518 174.856C856.621 177.452 859.754 180.009 862.904 182.548C863.51 183.036 864.115 183.525 864.739 184.027C869.473 187.796 874.373 191.285 879.342 194.736C889.611 201.897 897.895 209.433 905.467 219.486C906.03 220.215 906.594 220.944 907.175 221.696C917.018 234.944 919.364 252.26 922.615 268.138C922.833 269.197 922.833 269.197 923.055 270.276C927.473 291.829 931.192 313.516 935 335.183C936.567 344.096 938.139 353.008 939.716 361.92C940.096 364.064 940.474 366.208 940.852 368.353C942.873 379.802 944.962 391.218 947.357 402.595C949.777 414.213 951.032 425.863 952.092 437.673C952.3 439.915 952.509 442.157 952.718 444.398C955.809 478.058 957.633 511.75 959.052 545.516C959.151 547.84 959.253 550.164 959.357 552.487C961.39 598.465 960.496 644.515 960.089 690.521C960 700.624 959.929 710.727 959.87 720.83C959.835 726.877 959.799 732.925 959.762 738.972C959.753 740.487 959.743 742.001 959.734 743.516C959.623 762.031 959.419 780.538 959.022 799.05C957.554 867.734 962.9 934.132 971.637 1002.12C973.625 1017.61 975.484 1033.1 977.103 1048.63C977.196 1049.52 977.289 1050.4 977.385 1051.32C978.137 1058.49 978.877 1065.67 979.602 1072.85C979.88 1075.6 980.164 1078.34 980.456 1081.08C980.706 1083.44 980.948 1085.8 981.177 1088.16C982.382 1099.32 985.629 1109.94 989.717 1120.36C990.033 1121.18 990.35 1122 990.676 1122.85C993.246 1129.47 995.898 1136.07 998.545 1142.66C998.906 1143.56 999.267 1144.46 999.639 1145.39C1001.48 1149.98 1003.33 1154.57 1005.18 1159.15C1005.87 1160.86 1006.56 1162.57 1007.25 1164.28C1007.57 1165.08 1007.9 1165.87 1008.23 1166.7C1010.47 1172.26 1010.47 1172.26 1010.47 1174.49C859.327 1174.49 708.187 1174.49 552.467 1174.49C554.467 1168.49 554.467 1168.49 555.467 1166.49C555.588 1163.82 555.653 1161.17 555.678 1158.5C555.703 1156.83 555.73 1155.17 555.757 1153.51C555.77 1152.64 555.783 1151.76 555.797 1150.87C556.046 1135.91 556.36 1121.17 559.467 1106.49C559.698 1105.35 559.698 1105.35 559.934 1104.18C563.644 1086.55 571.228 1070.27 578.894 1054.06C587.762 1035.31 595.553 1016.15 603.285 996.898C605.034 992.55 606.805 988.211 608.587 983.876C609.849 980.8 611.098 977.719 612.344 974.637C612.921 973.214 613.504 971.793 614.092 970.374C614.893 968.438 615.674 966.495 616.451 964.548C616.892 963.467 617.332 962.385 617.786 961.271C618.732 958.524 618.732 958.524 617.593 956.107C617.221 955.572 616.85 955.037 616.467 954.486C609.898 960.375 608.734 967.106 607.467 975.486C606.477 975.816 605.487 976.146 604.467 976.486C604.312 978.404 604.312 978.404 604.154 980.361C603.978 982.541 603.978 982.541 603.467 984.486C599.56 987.09 597.433 986.584 592.916 986.037C589.631 985.298 587.755 983.921 585.467 981.486C585.137 980.826 584.807 980.166 584.467 979.486C582.149 978.451 579.815 977.45 577.467 976.486C575.588 974.608 576.076 971.447 575.904 968.923C575.82 967.726 575.737 966.528 575.65 965.294C575.59 964.368 575.529 963.441 575.467 962.486C573.817 962.156 572.167 961.826 570.467 961.486C568.857 956.549 568.188 952.11 568.006 946.916C567.643 944.308 567.643 944.308 565.451 942.326C562.484 938.08 562.953 934.227 563.092 929.173C563.112 927.716 563.112 927.716 563.133 926.229C563.331 917.092 563.558 907.211 566.467 898.486C563.196 898.628 559.925 898.775 556.654 898.923C555.207 898.987 555.207 898.987 553.731 899.051C548.857 899.277 544.058 899.604 539.217 900.236C534.889 900.683 532.004 899.851 528.006 898.252C523.573 896.915 519.01 896.905 514.408 896.697C511.467 896.486 511.467 896.486 509.467 895.486C512.221 898.407 514.912 900.884 518.217 903.173C521.467 905.486 521.467 905.486 522.467 907.486C522.989 910.621 522.896 912.713 521.338 915.517C517.542 920.829 513.752 924.391 507.467 926.486C496.439 927.69 486.872 924.756 476.467 921.486C475.899 922.244 475.332 923.002 474.748 923.783C472.603 926.324 470.733 927.936 467.967 929.736C467.214 930.236 466.461 930.736 465.685 931.252C461.367 933.654 457.622 933.597 452.717 933.548C451.546 933.539 450.376 933.53 449.17 933.521C448.278 933.509 447.386 933.498 446.467 933.486C446.049 934.642 446.049 934.642 445.623 935.822C443.742 940.156 440.705 942.582 436.41 944.317C429.349 946.494 422.371 947.411 415.029 948.111C413.769 948.236 412.508 948.36 411.21 948.489C398.31 949.701 385.417 950.232 372.467 950.486C371.557 950.508 370.647 950.53 369.71 950.552C361.927 950.729 354.406 950.871 346.791 948.998C342.413 948.034 337.93 947.808 333.467 947.486C333.797 948.146 334.127 948.806 334.467 949.486C335.685 963.472 334.062 976.869 331.161 990.507C325.837 1016.01 325.175 1041.39 324.683 1067.36C324.492 1077.31 324.117 1087.24 323.529 1097.17C323.488 1097.86 323.447 1098.56 323.405 1099.27C321.498 1130.61 321.498 1130.61 317.467 1143.49C314.591 1153.55 313.765 1164.1 312.467 1174.49C215.117 1174.49 117.767 1174.49 17.4667 1174.49C17.1367 1157.66 16.8067 1140.83 16.4667 1123.49C16.0788 1114.18 15.6739 1104.9 15.0917 1095.61C15.026 1094.52 14.9603 1093.43 14.8926 1092.31C14.4525 1085.03 13.9777 1077.76 13.4667 1070.49C13.4097 1069.67 13.3528 1068.86 13.2941 1068.02C12.1906 1052.57 9.9427 1037.99 5.89246 1023.03C4.4876 1017.77 3.47643 1012.5 2.65418 1007.11C2.54268 1006.38 2.43117 1005.65 2.31629 1004.9C2.00788 1002.76 1.72979 1000.63 1.46668 998.486C1.37242 997.737 1.27816 996.988 1.18104 996.217C-1.26302 974.734 0.373782 952.8 3.46668 931.486C3.66293 930.12 3.66293 930.12 3.86314 928.727C6.08147 913.419 8.76228 898.29 12.0292 883.173C12.4843 881.039 12.9392 878.904 13.3939 876.77C16.6257 861.678 19.9946 846.618 23.3768 831.56C23.8092 829.634 24.2416 827.707 24.674 825.78C26.622 817.105 28.5742 808.43 30.5433 799.76C31.37 796.115 32.1921 792.469 33.0133 788.823C33.399 787.115 33.787 785.408 34.1772 783.702C37.5435 771.213 37.5435 771.213 38.4667 758.486C36.298 756.25 36.298 756.25 33.4667 754.486C29.3723 748.788 28.9283 743.332 29.1112 736.513C29.1197 735.565 29.1281 734.616 29.1368 733.639C29.1566 731.614 29.1854 729.589 29.2223 727.564C29.3182 722.266 29.3481 716.968 29.3886 711.669C29.3985 710.62 29.4084 709.571 29.4186 708.49C29.4941 699.645 29.3441 690.825 29.0292 681.986C28.9698 680.232 28.9698 680.232 28.9093 678.443C28.6393 671.25 28.1868 664.076 27.6959 656.896C26.5247 639.476 28.8515 627.924 39.4667 613.486C40.1456 612.905 40.8245 612.323 41.5241 611.724C44.0402 608.825 44.0795 607.103 44.2948 603.294C44.3724 601.989 44.45 600.684 44.5299 599.339C44.5939 597.867 44.6561 596.395 44.7167 594.923C44.7537 594.157 44.7907 593.39 44.8289 592.6C46.5512 556.642 45.6382 520.524 44.9667 484.548C44.7949 475.194 44.6265 465.84 44.4667 456.486C44.4478 455.401 44.4289 454.316 44.4095 453.198C44.3056 447.06 44.2251 440.922 44.1796 434.783C44.1631 432.963 44.1395 431.144 44.1078 429.325C43.846 413.871 45.6996 399.045 52.2167 384.861C52.5852 384.03 52.9537 383.198 53.3334 382.342C57.2046 373.769 61.4023 365.344 65.5917 356.923C65.9289 356.245 66.2661 355.566 66.6135 354.867C73.0594 341.94 79.4359 330.04 89.4667 319.486C90.5564 318.22 91.64 316.95 92.7167 315.673C101.143 306.038 110.372 297.348 120.467 289.486C121.87 288.339 121.87 288.339 123.303 287.169C134.461 278.234 146.721 270.813 159.174 263.822C168.427 258.612 175.97 253.006 183.467 245.486C184.426 244.616 184.426 244.616 185.404 243.728C200.966 229.391 210.084 208.209 216.467 188.486C216.467 187.826 216.467 187.166 216.467 186.486C215.497 186.012 214.528 185.537 213.529 185.048C210.467 183.486 210.467 183.486 209.467 182.486C209.341 179.491 209.278 176.521 209.264 173.525C209.258 172.623 209.252 171.722 209.246 170.793C209.237 168.881 209.23 166.97 209.226 165.058C209.217 162.13 209.186 159.203 209.154 156.275C209.148 154.421 209.142 152.567 209.139 150.712C209.126 149.834 209.114 148.956 209.101 148.051C209.104 147.234 209.107 146.416 209.11 145.574C209.105 144.496 209.105 144.496 209.099 143.396C209.57 140.949 210.66 140.136 212.467 138.486C212.83 136.494 212.83 136.494 212.654 134.31C212.616 133.079 212.616 133.079 212.576 131.824C212.54 130.949 212.504 130.075 212.467 129.173C212.182 112.522 217.209 98.7003 223.467 83.4859C223.885 82.464 224.304 81.4421 224.735 80.3892C237.039 50.641 256.188 16.0047 286.798 1.37113C296.079 -1.70789 306.273 1.02857 315.404 3.42338Z" fill="#EAB308"/>
</svg>
